<?xml version="1.0" encoding="utf-8"?>
<!-- Generator: Adobe Illustrator 24.0.1, SVG Export Plug-In . SVG Version: 6.00 Build 0)  -->
<svg version="1.1" id="Layer_1" xmlns="http://www.w3.org/2000/svg" xmlns:xlink="http://www.w3.org/1999/xlink" x="0px" y="0px"
	 viewBox="0 0 2151 1440" style="enable-background:new 0 0 2151 1440;" xml:space="preserve">
<style type="text/css">
	.st0{fill:url(#SVGID_1_);}
	.st1{fill:url(#SVGID_2_);}
	.st2{fill:url(#SVGID_3_);}
	.st3{fill:url(#SVGID_4_);}
	.st4{fill:url(#SVGID_5_);}
	.st5{fill:url(#SVGID_6_);}
	.st6{fill:url(#SVGID_7_);}
	.st7{fill:url(#SVGID_8_);}
	.st8{fill:url(#SVGID_9_);}
	.st9{fill:url(#SVGID_10_);}
	.st10{fill:url(#SVGID_11_);}
	.st11{fill:url(#SVGID_12_);}
	.st12{fill:url(#SVGID_13_);}
	.st13{fill:url(#SVGID_14_);}
	.st14{fill:url(#SVGID_15_);}
	.st15{fill:url(#SVGID_16_);}
	.st16{fill:url(#SVGID_17_);}
	.st17{fill:url(#SVGID_18_);}
	.st18{fill:url(#SVGID_19_);}
	.st19{fill:url(#SVGID_20_);}
	.st20{fill:url(#SVGID_21_);}
	.st21{fill:url(#SVGID_22_);}
	.st22{fill:url(#SVGID_23_);}
	.st23{fill:url(#SVGID_24_);}
	.st24{fill:url(#SVGID_25_);}
	.st25{fill:url(#SVGID_26_);}
	.st26{fill:url(#SVGID_27_);}
	.st27{fill:url(#SVGID_28_);}
	.st28{fill:url(#SVGID_29_);}
</style>
<g>
	<g>
		<linearGradient id="SVGID_1_" gradientUnits="userSpaceOnUse" x1="46.6029" y1="1283.0894" x2="2182.5203" y2="1283.0894">
			<stop  offset="5.618000e-03" style="stop-color:#FBC926"/>
			<stop  offset="0.2528" style="stop-color:#FFFBCC"/>
			<stop  offset="0.3045" style="stop-color:#F8F0BB"/>
			<stop  offset="0.4072" style="stop-color:#E7D28E"/>
			<stop  offset="0.55" style="stop-color:#CCA246"/>
			<stop  offset="0.5955" style="stop-color:#C3922E"/>
			<stop  offset="0.8708" style="stop-color:#EED688"/>
			<stop  offset="1" style="stop-color:#FFFBCC"/>
		</linearGradient>
		<path class="st0" d="M175.93,1139.57h-29.57L17,1426.61h30.38l33.67-76.4h159.34l34.08,76.4h30.79L175.93,1139.57z M92.14,1324.78
			l68.15-155.24l69.01,155.24H92.14z"/>
		<linearGradient id="SVGID_2_" gradientUnits="userSpaceOnUse" x1="46.6209" y1="1283.0894" x2="2182.3987" y2="1283.0894">
			<stop  offset="5.618000e-03" style="stop-color:#FBC926"/>
			<stop  offset="0.2528" style="stop-color:#FFFBCC"/>
			<stop  offset="0.3045" style="stop-color:#F8F0BB"/>
			<stop  offset="0.4072" style="stop-color:#E7D28E"/>
			<stop  offset="0.55" style="stop-color:#CCA246"/>
			<stop  offset="0.5955" style="stop-color:#C3922E"/>
			<stop  offset="0.8708" style="stop-color:#EED688"/>
			<stop  offset="1" style="stop-color:#FFFBCC"/>
		</linearGradient>
		<path class="st1" d="M530.26,1327.62c21.37-6.27,37.77-17.35,49.27-33.22c11.49-15.91,17.26-35.74,17.26-59.54
			c0-30.38-9.83-53.86-29.39-70.45c-19.56-16.54-47.28-24.84-83.12-24.84H377.1v287.03h28.35v-92.81h78.83
			c4.64,0,11.36-0.27,20.1-0.81l61.98,93.62h32.86L530.26,1327.62z M484.28,1308.33h-78.83v-143.29h78.83
			c27.36,0,48.45,6.04,63.19,18.07c14.78,12.04,22.18,29.57,22.18,52.56c0,23.53-7.39,41.56-22.18,54
			C532.74,1302.11,511.64,1308.33,484.28,1308.33z"/>
		<linearGradient id="SVGID_3_" gradientUnits="userSpaceOnUse" x1="46.6362" y1="1282.8865" x2="2182.4324" y2="1282.8865">
			<stop  offset="5.618000e-03" style="stop-color:#FBC926"/>
			<stop  offset="0.2528" style="stop-color:#FFFBCC"/>
			<stop  offset="0.3045" style="stop-color:#F8F0BB"/>
			<stop  offset="0.4072" style="stop-color:#E7D28E"/>
			<stop  offset="0.55" style="stop-color:#CCA246"/>
			<stop  offset="0.5955" style="stop-color:#C3922E"/>
			<stop  offset="0.8708" style="stop-color:#EED688"/>
			<stop  offset="1" style="stop-color:#FFFBCC"/>
		</linearGradient>
		<path class="st2" d="M657.96,1139.17v25.87h94.84v261.57h28.35v-261.57h94.84v-25.87H657.96z"/>
		<linearGradient id="SVGID_4_" gradientUnits="userSpaceOnUse" x1="46.7386" y1="1283.0894" x2="2182.3218" y2="1283.0894">
			<stop  offset="5.618000e-03" style="stop-color:#FBC926"/>
			<stop  offset="0.2528" style="stop-color:#FFFBCC"/>
			<stop  offset="0.3045" style="stop-color:#F8F0BB"/>
			<stop  offset="0.4072" style="stop-color:#E7D28E"/>
			<stop  offset="0.55" style="stop-color:#CCA246"/>
			<stop  offset="0.5955" style="stop-color:#C3922E"/>
			<stop  offset="0.8708" style="stop-color:#EED688"/>
			<stop  offset="1" style="stop-color:#FFFBCC"/>
		</linearGradient>
		<path class="st3" d="M950.31,1139.57v25.47h192.15v-25.47H950.31z M978.61,1401.14v-108h146.58v-25.47H950.31v158.93h197.47
			v-25.47H978.61z"/>
		<linearGradient id="SVGID_5_" gradientUnits="userSpaceOnUse" x1="46.6727" y1="1283.0894" x2="2182.3884" y2="1283.0894">
			<stop  offset="5.618000e-03" style="stop-color:#FBC926"/>
			<stop  offset="0.2528" style="stop-color:#FFFBCC"/>
			<stop  offset="0.3045" style="stop-color:#F8F0BB"/>
			<stop  offset="0.4072" style="stop-color:#E7D28E"/>
			<stop  offset="0.55" style="stop-color:#CCA246"/>
			<stop  offset="0.5955" style="stop-color:#C3922E"/>
			<stop  offset="0.8708" style="stop-color:#EED688"/>
			<stop  offset="1" style="stop-color:#FFFBCC"/>
		</linearGradient>
		<path class="st4" d="M1270.15,1401.14v-261.57h-28.35v287.03h154.78v-25.47H1270.15z"/>
		<linearGradient id="SVGID_6_" gradientUnits="userSpaceOnUse" x1="47.7026" y1="1283.0894" x2="2181.9365" y2="1283.0894">
			<stop  offset="5.618000e-03" style="stop-color:#FBC926"/>
			<stop  offset="0.2528" style="stop-color:#FFFBCC"/>
			<stop  offset="0.3045" style="stop-color:#F8F0BB"/>
			<stop  offset="0.4072" style="stop-color:#E7D28E"/>
			<stop  offset="0.55" style="stop-color:#CCA246"/>
			<stop  offset="0.5955" style="stop-color:#C3922E"/>
			<stop  offset="0.8708" style="stop-color:#EED688"/>
			<stop  offset="1" style="stop-color:#FFFBCC"/>
		</linearGradient>
		<path class="st5" d="M1477.09,1139.57v287.03h28.31v-287.03H1477.09z"/>
		<linearGradient id="SVGID_7_" gradientUnits="userSpaceOnUse" x1="46.8135" y1="1283.0894" x2="2182.3967" y2="1283.0894">
			<stop  offset="5.618000e-03" style="stop-color:#FBC926"/>
			<stop  offset="0.2528" style="stop-color:#FFFBCC"/>
			<stop  offset="0.3045" style="stop-color:#F8F0BB"/>
			<stop  offset="0.4072" style="stop-color:#E7D28E"/>
			<stop  offset="0.55" style="stop-color:#CCA246"/>
			<stop  offset="0.5955" style="stop-color:#C3922E"/>
			<stop  offset="0.8708" style="stop-color:#EED688"/>
			<stop  offset="1" style="stop-color:#FFFBCC"/>
		</linearGradient>
		<path class="st6" d="M1620.38,1139.57v25.47h192.15v-25.47H1620.38z M1648.69,1401.14v-108h146.58v-25.47h-174.89v158.93h197.47
			v-25.47H1648.69z"/>
		<linearGradient id="SVGID_8_" gradientUnits="userSpaceOnUse" x1="46.6515" y1="1283.0894" x2="2182.4292" y2="1283.0894">
			<stop  offset="5.618000e-03" style="stop-color:#FBC926"/>
			<stop  offset="0.2528" style="stop-color:#FFFBCC"/>
			<stop  offset="0.3045" style="stop-color:#F8F0BB"/>
			<stop  offset="0.4072" style="stop-color:#E7D28E"/>
			<stop  offset="0.55" style="stop-color:#CCA246"/>
			<stop  offset="0.5955" style="stop-color:#C3922E"/>
			<stop  offset="0.8708" style="stop-color:#EED688"/>
			<stop  offset="1" style="stop-color:#FFFBCC"/>
		</linearGradient>
		<path class="st7" d="M2065.04,1327.62c21.37-6.27,37.77-17.35,49.27-33.22c11.49-15.91,17.26-35.74,17.26-59.54
			c0-30.38-9.83-53.86-29.39-70.45c-19.56-16.54-47.28-24.84-83.12-24.84h-107.19v287.03h28.35v-92.81h78.83
			c4.64,0,11.36-0.27,20.1-0.81l62.02,93.62H2134L2065.04,1327.62z M2019.06,1308.33h-78.83v-143.29h78.83
			c27.36,0,48.45,6.04,63.19,18.07c14.78,12.04,22.18,29.57,22.18,52.56c0,23.53-7.39,41.56-22.18,54
			C2067.52,1302.11,2046.42,1308.33,2019.06,1308.33z"/>
	</g>
	<g>
		<g>
			<linearGradient id="SVGID_9_" gradientUnits="userSpaceOnUse" x1="1075.5226" y1="13.3944" x2="1075.5226" y2="1012.3568">
				<stop  offset="5.618000e-03" style="stop-color:#FBC926"/>
				<stop  offset="0.2528" style="stop-color:#FFFBCC"/>
				<stop  offset="0.3045" style="stop-color:#F8F0BB"/>
				<stop  offset="0.4072" style="stop-color:#E7D28E"/>
				<stop  offset="0.55" style="stop-color:#CCA246"/>
				<stop  offset="0.5955" style="stop-color:#C3922E"/>
				<stop  offset="0.8708" style="stop-color:#EED688"/>
				<stop  offset="1" style="stop-color:#FFFBCC"/>
			</linearGradient>
			<path class="st8" d="M1460.55,917l-245.38-634.01l-25.29,10.95c-67.34,29.3-151.36,54.81-193.86,62.79l6.54,17.35
				c11.49-2.97,22.94-4.06,33.04-3.02c18.03,1.8,30.97,10.23,35.47,23.03c3.52,10.05,1.35,21.32-6.04,31.82
				c23.75,3.25,38.76,9.47,39.44,9.74l26.28,11.13l-24.48,14.74c-18.62,11.22-38.31,22.31-58.33,33.04l60.08,159.47H966.71
				c-0.5,13.12-2.34,28.67-6.67,45.48h163.39L1205.25,917h-113.32v46.16h451.15V917H1460.55z M1191.14,220.96
				c-1.53,2.16-3.34,4.33-5.32,6.45c-9.42,9.96-23.21,18.53-38.9,24.02c-1.17,0.45-2.39,0.81-3.56,1.22
				c28.8,4.28,47.28,14.92,48.09,15.42l23.17,13.61L1191.14,220.96z M1110.82,13.39h-55.94l-1.22,3.11l1.44,1.58
				c0.72,0.86,59.05,67.79,35.79,168.35c7.84-5.77,17.35-10.77,27.99-14.47c14.65-5.23,29.93-7.35,42.96-6.04
				c3.02,0.27,5.9,0.77,8.61,1.49L1110.82,13.39z M815.67,917c-13.03,0-23.17-2.16-30.38-6.63c-4.6-2.84-7.75-6.36-9.42-10.59
				c2.84,22.22,7.62,43.45,14.15,63.37h108.94V917H815.67z M726.83,865.34c-7.84,16.63-15.51,28.71-23.03,36.28
				C693.52,911.86,680.72,917,665.35,917h-57.38v46.16h134.14C733.23,932.05,728.09,899.37,726.83,865.34z"/>
		</g>
		<linearGradient id="SVGID_10_" gradientUnits="userSpaceOnUse" x1="918.1871" y1="13.9694" x2="918.1871" y2="1012.9378">
			<stop  offset="5.618000e-03" style="stop-color:#FBC926"/>
			<stop  offset="0.2528" style="stop-color:#FFFBCC"/>
			<stop  offset="0.3045" style="stop-color:#F8F0BB"/>
			<stop  offset="0.4072" style="stop-color:#E7D28E"/>
			<stop  offset="0.55" style="stop-color:#CCA246"/>
			<stop  offset="0.5955" style="stop-color:#C3922E"/>
			<stop  offset="0.8708" style="stop-color:#EED688"/>
			<stop  offset="1" style="stop-color:#FFFBCC"/>
		</linearGradient>
		<path class="st9" d="M964.38,363.67c-28.14,33.94-54.8,70.41-78.84,108.13c26.55-23.82,51.74-38.1,70.13-46.43
			c3.18-12.65,19.44-26.72,41.77-34.6c28.03-9.91,54.86-6.24,59.95,8.16c5.04,14.4-13.52,34.05-41.55,43.96
			c-28.03,9.91-54.91,6.24-59.95-8.16c-0.11-0.33-0.16-0.66-0.27-0.99c-22.67,10.79-54.97,30.44-86.67,64.93
			c-6.24,10.4-12.21,20.91-17.96,31.43c0,0-7.72,14.34-8.81,16.48c-5.97,11.33-11.55,22.67-16.86,33.94l9.85-12.04
			c39.58-63.34,83.44-97.12,123.89-114.2c5.69,3.07,12.7,4.98,20.91,5.58c12.26,0.93,26.01-1.15,39.69-5.97
			c10.68-3.83,20.48-8.92,28.47-15c30.77,1.81,50.7,10.18,50.7,10.18c-88.31,53.16-197.26,101.89-247.24,117.54l-36.85,39.31
			l-0.82-0.22c-17.74,41.06-31.26,81.41-40.51,120.61c77.52-190.91,231.75-158.11,231.75-158.11
			c-50.09,45.11-109.33,90.06-157.02,122.53c-1.59-0.38-3.23-0.66-4.93-0.77c-18.01-1.31-39.86,13.25-55.73,37.12
			c-0.49,0.71-0.99,1.53-1.48,2.3c-0.05,0.05-0.05,0.11-0.11,0.11l-19.65,31.32c-5.86,33.07-8.49,65.1-7.94,95.86
			c7.01-30.6,17.41-54.26,26.28-70.41c-5.09-12.04-0.49-33.07,12.59-52.72c16.42-24.75,40.08-37.99,52.78-29.51
			c12.7,8.43,9.69,35.37-6.79,60.11c-16.42,24.75-40.08,37.94-52.78,29.51c-0.27-0.22-0.55-0.44-0.82-0.66
			c-8.21,15.66-17.57,37.78-24.03,65.75l27.65-18.4c4.93-9.69,11.66-21.63,19.82-35.15c13.91-5.09,28.41-17.46,39.86-34.66
			c8.98-13.47,14.73-28.14,16.21-41.28c0.38-3.34,0.49-6.51,0.33-9.47c24.64-34.71,52.45-71.12,80.53-103.86
			c0,0,37.45,157.89-161.29,240.23l-25.62,14.73c-1.09,6.02-2.08,12.32-2.85,18.78c2.41,25.62,7.28,50.2,14.62,73.47h-17.46
			c-16.48-54.97-19.38-111.25-13.74-165.89l-17.41-26.06c-141.36-162.11-37.5-286.93-37.5-286.93c8.1,32.3,15.16,66.46,21.02,99.75
			c-6.3,13.3-7.99,32.19-3.78,52.83c3.29,16.15,9.53,30.11,17.41,40.13c3.67,31.92,5.69,59.18,5.8,78.02l16.15,28.03
			c1.81-13.58,4.11-26.99,6.84-40.29c-0.11-22.56-1.26-44.13-2.46-60.83c-13.41-2.19-27.15-21.63-32.36-47.36
			c-5.86-29.13,1.48-55.19,16.42-58.2c15-3.01,31.86,18.12,37.78,47.25c5.58,27.81-0.88,52.72-14.4,57.65
			c0.66,9.36,1.31,20.31,1.75,32.08c6.9-26.94,15.44-53.05,24.91-77.96l2.63-11.93c-15.38-50.09-36.68-167.47-42.65-270.4
			c0,0,97.56,62.85,75.66,201.36c2.63-5.31,5.31-10.51,7.94-15.6c6.9-13.19,14.18-26.33,21.79-39.42l3.5-15.77
			c-15.38-50.09-36.68-167.47-42.65-270.34c0,0,116.67,75.11,66.14,242.26c9.85-15.17,20.15-30.11,30.71-44.78
			c6.13-26.11,8.05-51.08,8.38-69.8c-13.03-3.94-24.09-25.07-25.79-51.3c-1.92-29.67,8.87-54.47,24.09-55.46
			c15.27-0.99,29.18,22.23,31.1,51.9c1.81,28.25-7.88,52.07-21.95,55.13c-0.33,15.27-1.59,34.55-5.26,55.19
			c10.89-14.62,22.12-28.85,33.56-42.7l7.17-32.41c-15.33-50.15-22.34-147.22-28.3-250.09c0,0,122.2,67.56,36.02,264.65l-0.16,0.38
			c18.94-21.9,38.43-42.59,58.25-61.81c-8.65-66.9,0-150.94,20.31-246.64c0,0,81.74,91.32,4.93,222.99
			c10.73-9.58,21.46-18.61,32.19-27.21c0.82-13.47,18.01-29.4,42.32-37.94c28.03-9.91,54.86-6.24,59.95,8.16
			c5.09,14.34-13.52,34.05-41.55,43.96c-21.02,7.39-41.39,7.23-52.39,0.55c-22.67,18.23-45.28,38.82-67.5,61.32
			c85.95-63.62,161.94-19,161.94-19c-70.62,30.66-156.09,55.9-194.63,62.52L964.38,363.67z"/>
	</g>
</g>
</svg>
